<svg id="ai-bg" width="1920" height="1080" viewBox="0 0 1920 1080" fill="none" xmlns="http://www.w3.org/2000/svg">
                <mask id="mask0" mask-type="alpha" maskUnits="userSpaceOnUse" x="0" y="0" width="1920" height="1080">
                <rect width="1920" height="1080" fill="#1F1F1F"/>
                </mask>
                <g mask="url(#mask0)">
                <mask id="mask1" mask-type="alpha" maskUnits="userSpaceOnUse" x="0" y="-80" width="1920" height="1376">
                <rect y="-80" width="1920" height="1376" fill="#1F1F1F"/>
                </mask>
                <g mask="url(#mask1)">
                <mask id="path-3-inside-1" fill="white">
                <path fill-rule="evenodd" clip-rule="evenodd" d="M609.921 333L723.114 398.352V529.056L609.921 594.408L496.728 529.056V398.352L609.921 333ZM740.959 552.957L854.152 618.309V749.013L740.959 814.364L627.766 749.013V618.309L740.959 552.957ZM463.712 838.265L350.519 772.914L237.326 838.265V968.969L350.519 1034.32L463.712 968.969V838.265ZM464.38 1279.52L351.188 1214.16L237.995 1279.52V1410.22L351.188 1475.57L464.38 1410.22V1279.52ZM480.889 994.208L594.081 1059.56V1190.26L480.889 1255.62L367.696 1190.26V1059.56L480.889 994.208ZM725.788 1279.52L612.595 1214.16L499.402 1279.52V1410.22L612.595 1475.57L725.788 1410.22V1279.52ZM742.296 994.208L855.489 1059.56V1190.26L742.296 1255.62L629.103 1190.26V1059.56L742.296 994.208ZM724.451 838.265L611.258 772.914L498.065 838.265V968.969L611.258 1034.32L724.451 968.969V838.265ZM593.413 618.309L480.22 552.957L367.027 618.309V749.013L480.22 814.364L593.413 749.013V618.309ZM71.9347 1058.22L-41.2581 992.87L-154.451 1058.22V1188.93L-41.2581 1254.28L71.9347 1188.93V1058.22ZM88.4428 772.914L201.636 838.265V968.969L88.4428 1034.32L-24.75 968.969V838.265L88.4428 772.914ZM331.337 618.309L218.144 552.957L104.951 618.309V749.013L218.144 814.364L331.337 749.013V618.309ZM-172.296 772.914L-59.1034 838.265V968.969L-172.296 1034.32L-285.489 968.969V838.265L-172.296 772.914ZM70.5976 618.309L-42.5953 552.957L-155.788 618.309V749.013L-42.5953 814.364L70.5976 749.013V618.309ZM87.1057 333L200.298 398.352V529.056L87.1057 594.408L-26.0872 529.056V398.352L87.1057 333ZM333.342 1059.56L220.15 994.208L106.957 1059.56V1190.26L220.15 1255.62L333.342 1190.26V1059.56Z"/>
                </mask>
                <path d="M723.114 398.352H725.114V397.197L724.114 396.62L723.114 398.352ZM609.921 333L610.921 331.268L609.921 330.691L608.921 331.268L609.921 333ZM723.114 529.056L724.114 530.788L725.114 530.21V529.056H723.114ZM609.921 594.408L608.921 596.14L609.921 596.717L610.921 596.14L609.921 594.408ZM496.728 529.056H494.728V530.21L495.728 530.788L496.728 529.056ZM496.728 398.352L495.728 396.62L494.728 397.197V398.352H496.728ZM854.152 618.309H856.152V617.154L855.152 616.577L854.152 618.309ZM740.959 552.957L741.959 551.225L740.959 550.647L739.959 551.225L740.959 552.957ZM854.152 749.013L855.152 750.745L856.152 750.167V749.013H854.152ZM740.959 814.364L739.959 816.096L740.959 816.674L741.959 816.096L740.959 814.364ZM627.766 749.013H625.766V750.167L626.766 750.745L627.766 749.013ZM627.766 618.309L626.766 616.577L625.766 617.154V618.309H627.766ZM350.519 772.914L351.519 771.182L350.519 770.604L349.519 771.182L350.519 772.914ZM463.712 838.265H465.712V837.111L464.712 836.533L463.712 838.265ZM237.326 838.265L236.326 836.533L235.326 837.111V838.265H237.326ZM237.326 968.969H235.326V970.124L236.326 970.701L237.326 968.969ZM350.519 1034.32L349.519 1036.05L350.519 1036.63L351.519 1036.05L350.519 1034.32ZM463.712 968.969L464.712 970.701L465.712 970.124V968.969H463.712ZM351.188 1214.16L352.188 1212.43L351.188 1211.85L350.188 1212.43L351.188 1214.16ZM464.38 1279.52H466.38V1278.36L465.38 1277.78L464.38 1279.52ZM237.995 1279.52L236.995 1277.78L235.995 1278.36V1279.52H237.995ZM237.995 1410.22H235.995V1411.37L236.995 1411.95L237.995 1410.22ZM351.188 1475.57L350.188 1477.3L351.188 1477.88L352.188 1477.3L351.188 1475.57ZM464.38 1410.22L465.38 1411.95L466.38 1411.37V1410.22H464.38ZM594.081 1059.56H596.081V1058.4L595.081 1057.83L594.081 1059.56ZM480.889 994.208L481.889 992.475L480.889 991.898L479.889 992.475L480.889 994.208ZM594.081 1190.26L595.081 1192L596.081 1191.42V1190.26H594.081ZM480.889 1255.62L479.889 1257.35L480.889 1257.92L481.889 1257.35L480.889 1255.62ZM367.696 1190.26H365.696V1191.42L366.696 1192L367.696 1190.26ZM367.696 1059.56L366.696 1057.83L365.696 1058.4V1059.56H367.696ZM612.595 1214.16L613.595 1212.43L612.595 1211.85L611.595 1212.43L612.595 1214.16ZM725.788 1279.52H727.788V1278.36L726.788 1277.78L725.788 1279.52ZM499.402 1279.52L498.402 1277.78L497.402 1278.36V1279.52H499.402ZM499.402 1410.22H497.402V1411.37L498.402 1411.95L499.402 1410.22ZM612.595 1475.57L611.595 1477.3L612.595 1477.88L613.595 1477.3L612.595 1475.57ZM725.788 1410.22L726.788 1411.95L727.788 1411.37V1410.22H725.788ZM855.489 1059.56H857.489V1058.4L856.489 1057.83L855.489 1059.56ZM742.296 994.208L743.296 992.475L742.296 991.898L741.296 992.475L742.296 994.208ZM855.489 1190.26L856.489 1192L857.489 1191.42V1190.26H855.489ZM742.296 1255.62L741.296 1257.35L742.296 1257.92L743.296 1257.35L742.296 1255.62ZM629.103 1190.26H627.103V1191.42L628.103 1192L629.103 1190.26ZM629.103 1059.56L628.103 1057.83L627.103 1058.4V1059.56H629.103ZM611.258 772.914L612.258 771.182L611.258 770.604L610.258 771.182L611.258 772.914ZM724.451 838.265H726.451V837.111L725.451 836.533L724.451 838.265ZM498.065 838.265L497.065 836.533L496.065 837.111V838.265H498.065ZM498.065 968.969H496.065V970.124L497.065 970.701L498.065 968.969ZM611.258 1034.32L610.258 1036.05L611.258 1036.63L612.258 1036.05L611.258 1034.32ZM724.451 968.969L725.451 970.701L726.451 970.124V968.969H724.451ZM480.22 552.957L481.22 551.225L480.22 550.647L479.22 551.225L480.22 552.957ZM593.413 618.309H595.413V617.154L594.413 616.577L593.413 618.309ZM367.027 618.309L366.027 616.577L365.027 617.154V618.309H367.027ZM367.027 749.013H365.027V750.167L366.027 750.745L367.027 749.013ZM480.22 814.364L479.22 816.096L480.22 816.674L481.22 816.096L480.22 814.364ZM593.413 749.013L594.413 750.745L595.413 750.167V749.013H593.413ZM-41.2581 992.87L-40.2581 991.138L-41.2581 990.561L-42.2581 991.138L-41.2581 992.87ZM71.9347 1058.22H73.9347V1057.07L72.9347 1056.49L71.9347 1058.22ZM-154.451 1058.22L-155.451 1056.49L-156.451 1057.07V1058.22H-154.451ZM-154.451 1188.93H-156.451V1190.08L-155.451 1190.66L-154.451 1188.93ZM-41.2581 1254.28L-42.2581 1256.01L-41.2581 1256.59L-40.2581 1256.01L-41.2581 1254.28ZM71.9347 1188.93L72.9347 1190.66L73.9347 1190.08V1188.93H71.9347ZM201.636 838.265H203.636V837.111L202.636 836.533L201.636 838.265ZM88.4428 772.914L89.4428 771.182L88.4428 770.604L87.4428 771.182L88.4428 772.914ZM201.636 968.969L202.636 970.701L203.636 970.124V968.969H201.636ZM88.4428 1034.32L87.4428 1036.05L88.4428 1036.63L89.4428 1036.05L88.4428 1034.32ZM-24.75 968.969H-26.75V970.124L-25.75 970.701L-24.75 968.969ZM-24.75 838.265L-25.75 836.533L-26.75 837.111V838.265H-24.75ZM218.144 552.957L219.144 551.225L218.144 550.647L217.144 551.225L218.144 552.957ZM331.337 618.309H333.337V617.154L332.337 616.577L331.337 618.309ZM104.951 618.309L103.951 616.577L102.951 617.154V618.309H104.951ZM104.951 749.013H102.951V750.167L103.951 750.745L104.951 749.013ZM218.144 814.364L217.144 816.096L218.144 816.674L219.144 816.096L218.144 814.364ZM331.337 749.013L332.337 750.745L333.337 750.167V749.013H331.337ZM-59.1034 838.265H-57.1034V837.111L-58.1034 836.533L-59.1034 838.265ZM-172.296 772.914L-171.296 771.182L-172.296 770.604L-173.296 771.182L-172.296 772.914ZM-59.1034 968.969L-58.1034 970.701L-57.1034 970.124V968.969H-59.1034ZM-172.296 1034.32L-173.296 1036.05L-172.296 1036.63L-171.296 1036.05L-172.296 1034.32ZM-285.489 968.969H-287.489V970.124L-286.489 970.701L-285.489 968.969ZM-285.489 838.265L-286.489 836.533L-287.489 837.111V838.265H-285.489ZM-42.5953 552.957L-41.5953 551.225L-42.5953 550.647L-43.5953 551.225L-42.5953 552.957ZM70.5976 618.309H72.5976V617.154L71.5976 616.577L70.5976 618.309ZM-155.788 618.309L-156.788 616.577L-157.788 617.154V618.309H-155.788ZM-155.788 749.013H-157.788V750.167L-156.788 750.745L-155.788 749.013ZM-42.5953 814.364L-43.5953 816.096L-42.5953 816.674L-41.5953 816.096L-42.5953 814.364ZM70.5976 749.013L71.5976 750.745L72.5976 750.167V749.013H70.5976ZM200.298 398.352H202.298V397.197L201.298 396.62L200.298 398.352ZM87.1057 333L88.1057 331.268L87.1057 330.691L86.1057 331.268L87.1057 333ZM200.298 529.056L201.298 530.788L202.298 530.21V529.056H200.298ZM87.1057 594.408L86.1057 596.14L87.1057 596.717L88.1057 596.14L87.1057 594.408ZM-26.0872 529.056H-28.0872V530.21L-27.0872 530.788L-26.0872 529.056ZM-26.0872 398.352L-27.0872 396.62L-28.0872 397.197V398.352H-26.0872ZM220.15 994.208L221.15 992.475L220.15 991.898L219.15 992.475L220.15 994.208ZM333.342 1059.56H335.342V1058.4L334.342 1057.83L333.342 1059.56ZM106.957 1059.56L105.957 1057.83L104.957 1058.4V1059.56H106.957ZM106.957 1190.26H104.957V1191.42L105.957 1192L106.957 1190.26ZM220.15 1255.62L219.15 1257.35L220.15 1257.92L221.15 1257.35L220.15 1255.62ZM333.342 1190.26L334.342 1192L335.342 1191.42V1190.26H333.342ZM724.114 396.62L610.921 331.268L608.921 334.732L722.114 400.084L724.114 396.62ZM725.114 529.056V398.352H721.114V529.056H725.114ZM610.921 596.14L724.114 530.788L722.114 527.324L608.921 592.676L610.921 596.14ZM495.728 530.788L608.921 596.14L610.921 592.676L497.728 527.324L495.728 530.788ZM494.728 398.352V529.056H498.728V398.352H494.728ZM608.921 331.268L495.728 396.62L497.728 400.084L610.921 334.732L608.921 331.268ZM855.152 616.577L741.959 551.225L739.959 554.689L853.152 620.041L855.152 616.577ZM856.152 749.013V618.309H852.152V749.013H856.152ZM741.959 816.096L855.152 750.745L853.152 747.28L739.959 812.632L741.959 816.096ZM626.766 750.745L739.959 816.096L741.959 812.632L628.766 747.28L626.766 750.745ZM625.766 618.309V749.013H629.766V618.309H625.766ZM739.959 551.225L626.766 616.577L628.766 620.041L741.959 554.689L739.959 551.225ZM349.519 774.646L462.712 839.998L464.712 836.533L351.519 771.182L349.519 774.646ZM238.326 839.998L351.519 774.646L349.519 771.182L236.326 836.533L238.326 839.998ZM239.326 968.969V838.265H235.326V968.969H239.326ZM351.519 1032.59L238.326 967.237L236.326 970.701L349.519 1036.05L351.519 1032.59ZM462.712 967.237L349.519 1032.59L351.519 1036.05L464.712 970.701L462.712 967.237ZM461.712 838.265V968.969H465.712V838.265H461.712ZM350.188 1215.9L463.38 1281.25L465.38 1277.78L352.188 1212.43L350.188 1215.9ZM238.995 1281.25L352.188 1215.9L350.188 1212.43L236.995 1277.78L238.995 1281.25ZM239.995 1410.22V1279.52H235.995V1410.22H239.995ZM352.188 1473.84L238.995 1408.49L236.995 1411.95L350.188 1477.3L352.188 1473.84ZM463.38 1408.49L350.188 1473.84L352.188 1477.3L465.38 1411.95L463.38 1408.49ZM462.38 1279.52V1410.22H466.38V1279.52H462.38ZM595.081 1057.83L481.889 992.475L479.889 995.94L593.081 1061.29L595.081 1057.83ZM596.081 1190.26V1059.56H592.081V1190.26H596.081ZM481.889 1257.35L595.081 1192L593.081 1188.53L479.889 1253.88L481.889 1257.35ZM366.696 1192L479.889 1257.35L481.889 1253.88L368.696 1188.53L366.696 1192ZM365.696 1059.56V1190.26H369.696V1059.56H365.696ZM479.889 992.475L366.696 1057.83L368.696 1061.29L481.889 995.94L479.889 992.475ZM611.595 1215.9L724.788 1281.25L726.788 1277.78L613.595 1212.43L611.595 1215.9ZM500.402 1281.25L613.595 1215.9L611.595 1212.43L498.402 1277.78L500.402 1281.25ZM501.402 1410.22V1279.52H497.402V1410.22H501.402ZM613.595 1473.84L500.402 1408.49L498.402 1411.95L611.595 1477.3L613.595 1473.84ZM724.788 1408.49L611.595 1473.84L613.595 1477.3L726.788 1411.95L724.788 1408.49ZM723.788 1279.52V1410.22H727.788V1279.52H723.788ZM856.489 1057.83L743.296 992.475L741.296 995.94L854.489 1061.29L856.489 1057.83ZM857.489 1190.26V1059.56H853.489V1190.26H857.489ZM743.296 1257.35L856.489 1192L854.489 1188.53L741.296 1253.88L743.296 1257.35ZM628.103 1192L741.296 1257.35L743.296 1253.88L630.103 1188.53L628.103 1192ZM627.103 1059.56V1190.26H631.103V1059.56H627.103ZM741.296 992.475L628.103 1057.83L630.103 1061.29L743.296 995.94L741.296 992.475ZM610.258 774.646L723.451 839.998L725.451 836.533L612.258 771.182L610.258 774.646ZM499.065 839.998L612.258 774.646L610.258 771.182L497.065 836.533L499.065 839.998ZM500.065 968.969V838.265H496.065V968.969H500.065ZM612.258 1032.59L499.065 967.237L497.065 970.701L610.258 1036.05L612.258 1032.59ZM723.451 967.237L610.258 1032.59L612.258 1036.05L725.451 970.701L723.451 967.237ZM722.451 838.265V968.969H726.451V838.265H722.451ZM479.22 554.689L592.413 620.041L594.413 616.577L481.22 551.225L479.22 554.689ZM368.027 620.041L481.22 554.689L479.22 551.225L366.027 616.577L368.027 620.041ZM369.027 749.013V618.309H365.027V749.013H369.027ZM481.22 812.632L368.027 747.28L366.027 750.745L479.22 816.096L481.22 812.632ZM592.413 747.28L479.22 812.632L481.22 816.096L594.413 750.745L592.413 747.28ZM591.413 618.309V749.013H595.413V618.309H591.413ZM-42.2581 994.602L70.9347 1059.95L72.9347 1056.49L-40.2581 991.138L-42.2581 994.602ZM-153.451 1059.95L-40.2581 994.602L-42.2581 991.138L-155.451 1056.49L-153.451 1059.95ZM-152.451 1188.93V1058.22H-156.451V1188.93H-152.451ZM-40.2581 1252.55L-153.451 1187.19L-155.451 1190.66L-42.2581 1256.01L-40.2581 1252.55ZM70.9347 1187.19L-42.2581 1252.55L-40.2581 1256.01L72.9347 1190.66L70.9347 1187.19ZM69.9347 1058.22V1188.93H73.9347V1058.22H69.9347ZM202.636 836.533L89.4428 771.182L87.4428 774.646L200.636 839.998L202.636 836.533ZM203.636 968.969V838.265H199.636V968.969H203.636ZM89.4428 1036.05L202.636 970.701L200.636 967.237L87.4428 1032.59L89.4428 1036.05ZM-25.75 970.701L87.4428 1036.05L89.4428 1032.59L-23.75 967.237L-25.75 970.701ZM-26.75 838.265V968.969H-22.75V838.265H-26.75ZM87.4428 771.182L-25.75 836.533L-23.75 839.998L89.4428 774.646L87.4428 771.182ZM217.144 554.689L330.337 620.041L332.337 616.577L219.144 551.225L217.144 554.689ZM105.951 620.041L219.144 554.689L217.144 551.225L103.951 616.577L105.951 620.041ZM106.951 749.013V618.309H102.951V749.013H106.951ZM219.144 812.632L105.951 747.28L103.951 750.745L217.144 816.096L219.144 812.632ZM330.337 747.28L217.144 812.632L219.144 816.096L332.337 750.745L330.337 747.28ZM329.337 618.309V749.013H333.337V618.309H329.337ZM-58.1034 836.533L-171.296 771.182L-173.296 774.646L-60.1034 839.998L-58.1034 836.533ZM-57.1034 968.969V838.265H-61.1034V968.969H-57.1034ZM-171.296 1036.05L-58.1034 970.701L-60.1034 967.237L-173.296 1032.59L-171.296 1036.05ZM-286.489 970.701L-173.296 1036.05L-171.296 1032.59L-284.489 967.237L-286.489 970.701ZM-287.489 838.265V968.969H-283.489V838.265H-287.489ZM-173.296 771.182L-286.489 836.533L-284.489 839.998L-171.296 774.646L-173.296 771.182ZM-43.5953 554.689L69.5976 620.041L71.5976 616.577L-41.5953 551.225L-43.5953 554.689ZM-154.788 620.041L-41.5953 554.689L-43.5953 551.225L-156.788 616.577L-154.788 620.041ZM-153.788 749.013V618.309H-157.788V749.013H-153.788ZM-41.5953 812.632L-154.788 747.28L-156.788 750.745L-43.5953 816.096L-41.5953 812.632ZM69.5976 747.28L-43.5953 812.632L-41.5953 816.096L71.5976 750.745L69.5976 747.28ZM68.5976 618.309V749.013H72.5976V618.309H68.5976ZM201.298 396.62L88.1057 331.268L86.1057 334.732L199.298 400.084L201.298 396.62ZM202.298 529.056V398.352H198.298V529.056H202.298ZM88.1057 596.14L201.298 530.788L199.298 527.324L86.1057 592.676L88.1057 596.14ZM-27.0872 530.788L86.1057 596.14L88.1057 592.676L-25.0872 527.324L-27.0872 530.788ZM-28.0872 398.352V529.056H-24.0872V398.352H-28.0872ZM86.1057 331.268L-27.0872 396.62L-25.0872 400.084L88.1057 334.732L86.1057 331.268ZM219.15 995.94L332.342 1061.29L334.342 1057.83L221.15 992.475L219.15 995.94ZM107.957 1061.29L221.15 995.94L219.15 992.475L105.957 1057.83L107.957 1061.29ZM108.957 1190.26V1059.56H104.957V1190.26H108.957ZM221.15 1253.88L107.957 1188.53L105.957 1192L219.15 1257.35L221.15 1253.88ZM332.342 1188.53L219.15 1253.88L221.15 1257.35L334.342 1192L332.342 1188.53ZM331.342 1059.56V1190.26H335.342V1059.56H331.342Z" fill="url(#paint0_linear)" mask="url(#path-3-inside-1)"/>
                <mask id="path-5-inside-2" fill="white">
                <path fill-rule="evenodd" clip-rule="evenodd" d="M1342.57 808.572L1229.38 743.22V612.516L1342.57 547.164L1455.76 612.516V743.22L1342.57 808.572ZM1211.53 588.615L1098.34 523.263V392.56L1211.53 327.208L1324.72 392.56V523.263L1211.53 588.615ZM1488.78 303.307L1601.97 368.658L1715.16 303.307V172.603L1601.97 107.251L1488.78 172.603V303.307ZM1488.11 -137.944L1601.3 -72.5923L1714.49 -137.944V-268.648L1601.3 -334L1488.11 -268.648V-137.944ZM1471.6 147.365L1358.41 82.0126V-48.6912L1471.6 -114.043L1584.79 -48.6912V82.0126L1471.6 147.365ZM1226.7 -137.944L1339.89 -72.5923L1453.09 -137.944V-268.648L1339.89 -334L1226.7 -268.648V-137.944ZM1210.19 147.365L1097 82.0126V-48.6912L1210.19 -114.043L1323.39 -48.6912V82.0126L1210.19 147.365ZM1228.04 303.307L1341.23 368.658L1454.42 303.307V172.603L1341.23 107.251L1228.04 172.603V303.307ZM1359.08 523.263L1472.27 588.615L1585.46 523.263V392.56L1472.27 327.208L1359.08 392.56V523.263ZM1880.55 83.3497L1993.75 148.702L2106.94 83.3497V-47.3541L1993.75 -112.706L1880.55 -47.3541V83.3497ZM1864.05 368.658L1750.85 303.307V172.603L1864.05 107.251L1977.24 172.603V303.307L1864.05 368.658ZM1621.15 523.263L1734.35 588.615L1847.54 523.263V392.56L1734.35 327.208L1621.15 392.56V523.263ZM2124.79 368.658L2011.59 303.307V172.603L2124.79 107.251L2237.98 172.603V303.307L2124.79 368.658ZM1881.89 523.263L1995.08 588.615L2108.28 523.263V392.56L1995.08 327.208L1881.89 392.56V523.263ZM1865.38 808.572L1752.19 743.22V612.516L1865.38 547.164L1978.58 612.516V743.22L1865.38 808.572ZM1619.15 82.0126L1732.34 147.365L1845.53 82.0126V-48.6912L1732.34 -114.043L1619.15 -48.6912V82.0126Z"/>
                </mask>
                <path d="M1229.38 743.22H1227.38V744.375L1228.38 744.952L1229.38 743.22ZM1342.57 808.572L1341.57 810.304L1342.57 810.881L1343.57 810.304L1342.57 808.572ZM1229.38 612.516L1228.38 610.784L1227.38 611.362V612.516H1229.38ZM1342.57 547.164L1343.57 545.432L1342.57 544.855L1341.57 545.432L1342.57 547.164ZM1455.76 612.516H1457.76V611.362L1456.76 610.784L1455.76 612.516ZM1455.76 743.22L1456.76 744.952L1457.76 744.375V743.22H1455.76ZM1098.34 523.263H1096.34V524.418L1097.34 524.995L1098.34 523.263ZM1211.53 588.615L1210.53 590.347L1211.53 590.925L1212.53 590.347L1211.53 588.615ZM1098.34 392.56L1097.34 390.827L1096.34 391.405V392.56H1098.34ZM1211.53 327.208L1212.53 325.476L1211.53 324.898L1210.53 325.476L1211.53 327.208ZM1324.72 392.56H1326.72V391.405L1325.72 390.827L1324.72 392.56ZM1324.72 523.263L1325.72 524.995L1326.72 524.418V523.263H1324.72ZM1601.97 368.658L1600.97 370.391L1601.97 370.968L1602.97 370.391L1601.97 368.658ZM1488.78 303.307H1486.78V304.461L1487.78 305.039L1488.78 303.307ZM1715.16 303.307L1716.16 305.039L1717.16 304.461V303.307H1715.16ZM1715.16 172.603H1717.16V171.448L1716.16 170.871L1715.16 172.603ZM1601.97 107.251L1602.97 105.519L1601.97 104.941L1600.97 105.519L1601.97 107.251ZM1488.78 172.603L1487.78 170.871L1486.78 171.448V172.603H1488.78ZM1601.3 -72.5923L1600.3 -70.8602L1601.3 -70.2829L1602.3 -70.8602L1601.3 -72.5923ZM1488.11 -137.944H1486.11V-136.789L1487.11 -136.212L1488.11 -137.944ZM1714.49 -137.944L1715.49 -136.212L1716.49 -136.789V-137.944H1714.49ZM1714.49 -268.648H1716.49V-269.803L1715.49 -270.38L1714.49 -268.648ZM1601.3 -334L1602.3 -335.732L1601.3 -336.309L1600.3 -335.732L1601.3 -334ZM1488.11 -268.648L1487.11 -270.38L1486.11 -269.803V-268.648H1488.11ZM1358.41 82.0126H1356.41V83.1673L1357.41 83.7446L1358.41 82.0126ZM1471.6 147.365L1470.6 149.097L1471.6 149.674L1472.6 149.097L1471.6 147.365ZM1358.41 -48.6912L1357.41 -50.4233L1356.41 -49.8459V-48.6912H1358.41ZM1471.6 -114.043L1472.6 -115.775L1471.6 -116.352L1470.6 -115.775L1471.6 -114.043ZM1584.79 -48.6912H1586.79V-49.8459L1585.79 -50.4233L1584.79 -48.6912ZM1584.79 82.0126L1585.79 83.7446L1586.79 83.1673V82.0126H1584.79ZM1339.89 -72.5923L1338.89 -70.8602L1339.89 -70.2829L1340.89 -70.8602L1339.89 -72.5923ZM1226.7 -137.944H1224.7V-136.789L1225.7 -136.212L1226.7 -137.944ZM1453.09 -137.944L1454.09 -136.212L1455.09 -136.789V-137.944H1453.09ZM1453.09 -268.648H1455.09V-269.803L1454.09 -270.38L1453.09 -268.648ZM1339.89 -334L1340.89 -335.732L1339.89 -336.309L1338.89 -335.732L1339.89 -334ZM1226.7 -268.648L1225.7 -270.38L1224.7 -269.803V-268.648H1226.7ZM1097 82.0126H1095V83.1673L1096 83.7446L1097 82.0126ZM1210.19 147.365L1209.19 149.097L1210.19 149.674L1211.19 149.097L1210.19 147.365ZM1097 -48.6912L1096 -50.4233L1095 -49.8459V-48.6912H1097ZM1210.19 -114.043L1211.19 -115.775L1210.19 -116.352L1209.19 -115.775L1210.19 -114.043ZM1323.39 -48.6912H1325.39V-49.8459L1324.39 -50.4233L1323.39 -48.6912ZM1323.39 82.0126L1324.39 83.7446L1325.39 83.1673V82.0126H1323.39ZM1341.23 368.658L1340.23 370.391L1341.23 370.968L1342.23 370.391L1341.23 368.658ZM1228.04 303.307H1226.04V304.461L1227.04 305.039L1228.04 303.307ZM1454.42 303.307L1455.42 305.039L1456.42 304.461V303.307H1454.42ZM1454.42 172.603H1456.42V171.448L1455.42 170.871L1454.42 172.603ZM1341.23 107.251L1342.23 105.519L1341.23 104.941L1340.23 105.519L1341.23 107.251ZM1228.04 172.603L1227.04 170.871L1226.04 171.448V172.603H1228.04ZM1472.27 588.615L1471.27 590.347L1472.27 590.925L1473.27 590.347L1472.27 588.615ZM1359.08 523.263H1357.08V524.418L1358.08 524.995L1359.08 523.263ZM1585.46 523.263L1586.46 524.995L1587.46 524.418V523.263H1585.46ZM1585.46 392.56H1587.46V391.405L1586.46 390.827L1585.46 392.56ZM1472.27 327.208L1473.27 325.476L1472.27 324.898L1471.27 325.476L1472.27 327.208ZM1359.08 392.56L1358.08 390.827L1357.08 391.405V392.56H1359.08ZM1993.75 148.702L1992.75 150.434L1993.75 151.011L1994.75 150.434L1993.75 148.702ZM1880.55 83.3497H1878.55V84.5045L1879.55 85.0818L1880.55 83.3497ZM2106.94 83.3497L2107.94 85.0818L2108.94 84.5045V83.3497H2106.94ZM2106.94 -47.3541H2108.94V-48.5088L2107.94 -49.0861L2106.94 -47.3541ZM1993.75 -112.706L1994.75 -114.438L1993.75 -115.015L1992.75 -114.438L1993.75 -112.706ZM1880.55 -47.3541L1879.55 -49.0861L1878.55 -48.5088V-47.3541H1880.55ZM1750.85 303.307H1748.85V304.461L1749.85 305.039L1750.85 303.307ZM1864.05 368.658L1863.05 370.391L1864.05 370.968L1865.05 370.391L1864.05 368.658ZM1750.85 172.603L1749.85 170.871L1748.85 171.448V172.603H1750.85ZM1864.05 107.251L1865.05 105.519L1864.05 104.941L1863.05 105.519L1864.05 107.251ZM1977.24 172.603H1979.24V171.448L1978.24 170.871L1977.24 172.603ZM1977.24 303.307L1978.24 305.039L1979.24 304.461V303.307H1977.24ZM1734.35 588.615L1733.35 590.347L1734.35 590.925L1735.35 590.347L1734.35 588.615ZM1621.15 523.263H1619.15V524.418L1620.15 524.995L1621.15 523.263ZM1847.54 523.263L1848.54 524.995L1849.54 524.418V523.263H1847.54ZM1847.54 392.56H1849.54V391.405L1848.54 390.827L1847.54 392.56ZM1734.35 327.208L1735.35 325.476L1734.35 324.898L1733.35 325.476L1734.35 327.208ZM1621.15 392.56L1620.15 390.827L1619.15 391.405V392.56H1621.15ZM2011.59 303.307H2009.59V304.461L2010.59 305.039L2011.59 303.307ZM2124.79 368.658L2123.79 370.391L2124.79 370.968L2125.79 370.391L2124.79 368.658ZM2011.59 172.603L2010.59 170.871L2009.59 171.448V172.603H2011.59ZM2124.79 107.251L2125.79 105.519L2124.79 104.941L2123.79 105.519L2124.79 107.251ZM2237.98 172.603H2239.98V171.448L2238.98 170.871L2237.98 172.603ZM2237.98 303.307L2238.98 305.039L2239.98 304.461V303.307H2237.98ZM1995.08 588.615L1994.08 590.347L1995.08 590.925L1996.08 590.347L1995.08 588.615ZM1881.89 523.263H1879.89V524.418L1880.89 524.995L1881.89 523.263ZM2108.28 523.263L2109.28 524.995L2110.28 524.418V523.263H2108.28ZM2108.28 392.56H2110.28V391.405L2109.28 390.827L2108.28 392.56ZM1995.08 327.208L1996.08 325.476L1995.08 324.898L1994.08 325.476L1995.08 327.208ZM1881.89 392.56L1880.89 390.827L1879.89 391.405V392.56H1881.89ZM1752.19 743.22H1750.19V744.375L1751.19 744.952L1752.19 743.22ZM1865.38 808.572L1864.38 810.304L1865.38 810.881L1866.38 810.304L1865.38 808.572ZM1752.19 612.516L1751.19 610.784L1750.19 611.362V612.516H1752.19ZM1865.38 547.164L1866.38 545.432L1865.38 544.855L1864.38 545.432L1865.38 547.164ZM1978.58 612.516H1980.58V611.362L1979.58 610.784L1978.58 612.516ZM1978.58 743.22L1979.58 744.952L1980.58 744.375V743.22H1978.58ZM1732.34 147.365L1731.34 149.097L1732.34 149.674L1733.34 149.097L1732.34 147.365ZM1619.15 82.0126H1617.15V83.1673L1618.15 83.7446L1619.15 82.0126ZM1845.53 82.0126L1846.53 83.7446L1847.53 83.1673V82.0126H1845.53ZM1845.53 -48.6912H1847.53V-49.8459L1846.53 -50.4233L1845.53 -48.6912ZM1732.34 -114.043L1733.34 -115.775L1732.34 -116.352L1731.34 -115.775L1732.34 -114.043ZM1619.15 -48.6912L1618.15 -50.4233L1617.15 -49.8459V-48.6912H1619.15ZM1228.38 744.952L1341.57 810.304L1343.57 806.84L1230.38 741.488L1228.38 744.952ZM1227.38 612.516V743.22H1231.38V612.516H1227.38ZM1341.57 545.432L1228.38 610.784L1230.38 614.248L1343.57 548.896L1341.57 545.432ZM1456.76 610.784L1343.57 545.432L1341.57 548.896L1454.76 614.248L1456.76 610.784ZM1457.76 743.22V612.516H1453.76V743.22H1457.76ZM1343.57 810.304L1456.76 744.952L1454.76 741.488L1341.57 806.84L1343.57 810.304ZM1097.34 524.995L1210.53 590.347L1212.53 586.883L1099.34 521.531L1097.34 524.995ZM1096.34 392.56V523.263H1100.34V392.56H1096.34ZM1210.53 325.476L1097.34 390.827L1099.34 394.292L1212.53 328.94L1210.53 325.476ZM1325.72 390.827L1212.53 325.476L1210.53 328.94L1323.72 394.292L1325.72 390.827ZM1326.72 523.263V392.56H1322.72V523.263H1326.72ZM1212.53 590.347L1325.72 524.995L1323.72 521.531L1210.53 586.883L1212.53 590.347ZM1602.97 366.926L1489.78 301.574L1487.78 305.039L1600.97 370.391L1602.97 366.926ZM1714.16 301.574L1600.97 366.926L1602.97 370.391L1716.16 305.039L1714.16 301.574ZM1713.16 172.603V303.307H1717.16V172.603H1713.16ZM1600.97 108.983L1714.16 174.335L1716.16 170.871L1602.97 105.519L1600.97 108.983ZM1489.78 174.335L1602.97 108.983L1600.97 105.519L1487.78 170.871L1489.78 174.335ZM1490.78 303.307V172.603H1486.78V303.307H1490.78ZM1602.3 -74.3243L1489.11 -139.676L1487.11 -136.212L1600.3 -70.8602L1602.3 -74.3243ZM1713.49 -139.676L1600.3 -74.3243L1602.3 -70.8602L1715.49 -136.212L1713.49 -139.676ZM1712.49 -268.648V-137.944H1716.49V-268.648H1712.49ZM1600.3 -332.268L1713.49 -266.916L1715.49 -270.38L1602.3 -335.732L1600.3 -332.268ZM1489.11 -266.916L1602.3 -332.268L1600.3 -335.732L1487.11 -270.38L1489.11 -266.916ZM1490.11 -137.944V-268.648H1486.11V-137.944H1490.11ZM1357.41 83.7446L1470.6 149.097L1472.6 145.632L1359.41 80.2805L1357.41 83.7446ZM1356.41 -48.6912V82.0126H1360.41V-48.6912H1356.41ZM1470.6 -115.775L1357.41 -50.4233L1359.41 -46.9592L1472.6 -112.311L1470.6 -115.775ZM1585.79 -50.4233L1472.6 -115.775L1470.6 -112.311L1583.79 -46.9592L1585.79 -50.4233ZM1586.79 82.0126V-48.6912H1582.79V82.0126H1586.79ZM1472.6 149.097L1585.79 83.7446L1583.79 80.2805L1470.6 145.632L1472.6 149.097ZM1340.89 -74.3243L1227.7 -139.676L1225.7 -136.212L1338.89 -70.8602L1340.89 -74.3243ZM1452.09 -139.676L1338.89 -74.3243L1340.89 -70.8602L1454.09 -136.212L1452.09 -139.676ZM1451.09 -268.648V-137.944H1455.09V-268.648H1451.09ZM1338.89 -332.268L1452.09 -266.916L1454.09 -270.38L1340.89 -335.732L1338.89 -332.268ZM1227.7 -266.916L1340.89 -332.268L1338.89 -335.732L1225.7 -270.38L1227.7 -266.916ZM1228.7 -137.944V-268.648H1224.7V-137.944H1228.7ZM1096 83.7446L1209.19 149.097L1211.19 145.632L1098 80.2805L1096 83.7446ZM1095 -48.6912V82.0126H1099V-48.6912H1095ZM1209.19 -115.775L1096 -50.4233L1098 -46.9592L1211.19 -112.311L1209.19 -115.775ZM1324.39 -50.4233L1211.19 -115.775L1209.19 -112.311L1322.39 -46.9592L1324.39 -50.4233ZM1325.39 82.0126V-48.6912H1321.39V82.0126H1325.39ZM1211.19 149.097L1324.39 83.7446L1322.39 80.2805L1209.19 145.632L1211.19 149.097ZM1342.23 366.926L1229.04 301.574L1227.04 305.039L1340.23 370.391L1342.23 366.926ZM1453.42 301.574L1340.23 366.926L1342.23 370.391L1455.42 305.039L1453.42 301.574ZM1452.42 172.603V303.307H1456.42V172.603H1452.42ZM1340.23 108.983L1453.42 174.335L1455.42 170.871L1342.23 105.519L1340.23 108.983ZM1229.04 174.335L1342.23 108.983L1340.23 105.519L1227.04 170.871L1229.04 174.335ZM1230.04 303.307V172.603H1226.04V303.307H1230.04ZM1473.27 586.883L1360.08 521.531L1358.08 524.995L1471.27 590.347L1473.27 586.883ZM1584.46 521.531L1471.27 586.883L1473.27 590.347L1586.46 524.995L1584.46 521.531ZM1583.46 392.56V523.263H1587.46V392.56H1583.46ZM1471.27 328.94L1584.46 394.292L1586.46 390.827L1473.27 325.476L1471.27 328.94ZM1360.08 394.292L1473.27 328.94L1471.27 325.476L1358.08 390.827L1360.08 394.292ZM1361.08 523.263V392.56H1357.08V523.263H1361.08ZM1994.75 146.97L1881.55 81.6177L1879.55 85.0818L1992.75 150.434L1994.75 146.97ZM2105.94 81.6177L1992.75 146.97L1994.75 150.434L2107.94 85.0818L2105.94 81.6177ZM2104.94 -47.3541V83.3497H2108.94V-47.3541H2104.94ZM1992.75 -110.974L2105.94 -45.622L2107.94 -49.0861L1994.75 -114.438L1992.75 -110.974ZM1881.55 -45.622L1994.75 -110.974L1992.75 -114.438L1879.55 -49.0861L1881.55 -45.622ZM1882.55 83.3497V-47.3541H1878.55V83.3497H1882.55ZM1749.85 305.039L1863.05 370.391L1865.05 366.926L1751.85 301.574L1749.85 305.039ZM1748.85 172.603V303.307H1752.85V172.603H1748.85ZM1863.05 105.519L1749.85 170.871L1751.85 174.335L1865.05 108.983L1863.05 105.519ZM1978.24 170.871L1865.05 105.519L1863.05 108.983L1976.24 174.335L1978.24 170.871ZM1979.24 303.307V172.603H1975.24V303.307H1979.24ZM1865.05 370.391L1978.24 305.039L1976.24 301.574L1863.05 366.926L1865.05 370.391ZM1735.35 586.883L1622.15 521.531L1620.15 524.995L1733.35 590.347L1735.35 586.883ZM1846.54 521.531L1733.35 586.883L1735.35 590.347L1848.54 524.995L1846.54 521.531ZM1845.54 392.56V523.263H1849.54V392.56H1845.54ZM1733.35 328.94L1846.54 394.292L1848.54 390.827L1735.35 325.476L1733.35 328.94ZM1622.15 394.292L1735.35 328.94L1733.35 325.476L1620.15 390.827L1622.15 394.292ZM1623.15 523.263V392.56H1619.15V523.263H1623.15ZM2010.59 305.039L2123.79 370.391L2125.79 366.926L2012.59 301.574L2010.59 305.039ZM2009.59 172.603V303.307H2013.59V172.603H2009.59ZM2123.79 105.519L2010.59 170.871L2012.59 174.335L2125.79 108.983L2123.79 105.519ZM2238.98 170.871L2125.79 105.519L2123.79 108.983L2236.98 174.335L2238.98 170.871ZM2239.98 303.307V172.603H2235.98V303.307H2239.98ZM2125.79 370.391L2238.98 305.039L2236.98 301.574L2123.79 366.926L2125.79 370.391ZM1996.08 586.883L1882.89 521.531L1880.89 524.995L1994.08 590.347L1996.08 586.883ZM2107.28 521.531L1994.08 586.883L1996.08 590.347L2109.28 524.995L2107.28 521.531ZM2106.28 392.56V523.263H2110.28V392.56H2106.28ZM1994.08 328.94L2107.28 394.292L2109.28 390.827L1996.08 325.476L1994.08 328.94ZM1882.89 394.292L1996.08 328.94L1994.08 325.476L1880.89 390.827L1882.89 394.292ZM1883.89 523.263V392.56H1879.89V523.263H1883.89ZM1751.19 744.952L1864.38 810.304L1866.38 806.84L1753.19 741.488L1751.19 744.952ZM1750.19 612.516V743.22H1754.19V612.516H1750.19ZM1864.38 545.432L1751.19 610.784L1753.19 614.248L1866.38 548.896L1864.38 545.432ZM1979.58 610.784L1866.38 545.432L1864.38 548.896L1977.58 614.248L1979.58 610.784ZM1980.58 743.22V612.516H1976.58V743.22H1980.58ZM1866.38 810.304L1979.58 744.952L1977.58 741.488L1864.38 806.84L1866.38 810.304ZM1733.34 145.632L1620.15 80.2805L1618.15 83.7446L1731.34 149.097L1733.34 145.632ZM1844.53 80.2805L1731.34 145.632L1733.34 149.097L1846.53 83.7446L1844.53 80.2805ZM1843.53 -48.6912V82.0126H1847.53V-48.6912H1843.53ZM1731.34 -112.311L1844.53 -46.9592L1846.53 -50.4233L1733.34 -115.775L1731.34 -112.311ZM1620.15 -46.9592L1733.34 -112.311L1731.34 -115.775L1618.15 -50.4233L1620.15 -46.9592ZM1621.15 82.0126V-48.6912H1617.15V82.0126H1621.15Z" fill="url(#paint1_linear)" mask="url(#path-5-inside-2)"/>
                <mask id="path-7-inside-3" fill="white">
                <path fill-rule="evenodd" clip-rule="evenodd" d="M1388.57 2182.57L1275.38 2117.22V1986.52L1388.57 1921.16L1501.76 1986.52V2117.22L1388.57 2182.57ZM1257.53 1962.62L1144.34 1897.26V1766.56L1257.53 1701.21L1370.72 1766.56V1897.26L1257.53 1962.62ZM1534.78 1677.31L1647.97 1742.66L1761.16 1677.31V1546.6L1647.97 1481.25L1534.78 1546.6V1677.31ZM1534.11 1236.06L1647.3 1301.41L1760.49 1236.06V1105.35L1647.3 1040L1534.11 1105.35V1236.06ZM1517.6 1521.36L1404.41 1456.01V1325.31L1517.6 1259.96L1630.79 1325.31V1456.01L1517.6 1521.36ZM1272.7 1236.06L1385.89 1301.41L1499.09 1236.06V1105.35L1385.89 1040L1272.7 1105.35V1236.06ZM1256.19 1521.36L1143 1456.01V1325.31L1256.19 1259.96L1369.39 1325.31V1456.01L1256.19 1521.36ZM1274.04 1677.31L1387.23 1742.66L1500.42 1677.31V1546.6L1387.23 1481.25L1274.04 1546.6V1677.31ZM1405.08 1897.26L1518.27 1962.62L1631.46 1897.26V1766.56L1518.27 1701.21L1405.08 1766.56V1897.26ZM1926.55 1457.35L2039.75 1522.7L2152.94 1457.35V1326.65L2039.75 1261.29L1926.55 1326.65V1457.35ZM1910.05 1742.66L1796.85 1677.31V1546.6L1910.05 1481.25L2023.24 1546.6V1677.31L1910.05 1742.66ZM1667.15 1897.26L1780.35 1962.62L1893.54 1897.26V1766.56L1780.35 1701.21L1667.15 1766.56V1897.26ZM2170.79 1742.66L2057.59 1677.31V1546.6L2170.79 1481.25L2283.98 1546.6V1677.31L2170.79 1742.66ZM1927.89 1897.26L2041.08 1962.62L2154.28 1897.26V1766.56L2041.08 1701.21L1927.89 1766.56V1897.26ZM1911.38 2182.57L1798.19 2117.22V1986.52L1911.38 1921.16L2024.58 1986.52V2117.22L1911.38 2182.57ZM1665.15 1456.01L1778.34 1521.36L1891.53 1456.01V1325.31L1778.34 1259.96L1665.15 1325.31V1456.01Z"/>
                </mask>
                <path d="M1275.38 2117.22H1273.38V2118.37L1274.38 2118.95L1275.38 2117.22ZM1388.57 2182.57L1387.57 2184.3L1388.57 2184.88L1389.57 2184.3L1388.57 2182.57ZM1275.38 1986.52L1274.38 1984.78L1273.38 1985.36V1986.52H1275.38ZM1388.57 1921.16L1389.57 1919.43L1388.57 1918.86L1387.57 1919.43L1388.57 1921.16ZM1501.76 1986.52H1503.76V1985.36L1502.76 1984.78L1501.76 1986.52ZM1501.76 2117.22L1502.76 2118.95L1503.76 2118.37V2117.22H1501.76ZM1144.34 1897.26H1142.34V1898.42L1143.34 1899L1144.34 1897.26ZM1257.53 1962.62L1256.53 1964.35L1257.53 1964.92L1258.53 1964.35L1257.53 1962.62ZM1144.34 1766.56L1143.34 1764.83L1142.34 1765.4V1766.56H1144.34ZM1257.53 1701.21L1258.53 1699.48L1257.53 1698.9L1256.53 1699.48L1257.53 1701.21ZM1370.72 1766.56H1372.72V1765.4L1371.72 1764.83L1370.72 1766.56ZM1370.72 1897.26L1371.72 1899L1372.72 1898.42V1897.26H1370.72ZM1647.97 1742.66L1646.97 1744.39L1647.97 1744.97L1648.97 1744.39L1647.97 1742.66ZM1534.78 1677.31H1532.78V1678.46L1533.78 1679.04L1534.78 1677.31ZM1761.16 1677.31L1762.16 1679.04L1763.16 1678.46V1677.31H1761.16ZM1761.16 1546.6H1763.16V1545.45L1762.16 1544.87L1761.16 1546.6ZM1647.97 1481.25L1648.97 1479.52L1647.97 1478.94L1646.97 1479.52L1647.97 1481.25ZM1534.78 1546.6L1533.78 1544.87L1532.78 1545.45V1546.6H1534.78ZM1647.3 1301.41L1646.3 1303.14L1647.3 1303.72L1648.3 1303.14L1647.3 1301.41ZM1534.11 1236.06H1532.11V1237.21L1533.11 1237.79L1534.11 1236.06ZM1760.49 1236.06L1761.49 1237.79L1762.49 1237.21V1236.06H1760.49ZM1760.49 1105.35H1762.49V1104.2L1761.49 1103.62L1760.49 1105.35ZM1647.3 1040L1648.3 1038.27L1647.3 1037.69L1646.3 1038.27L1647.3 1040ZM1534.11 1105.35L1533.11 1103.62L1532.11 1104.2V1105.35H1534.11ZM1404.41 1456.01H1402.41V1457.17L1403.41 1457.74L1404.41 1456.01ZM1517.6 1521.36L1516.6 1523.1L1517.6 1523.67L1518.6 1523.1L1517.6 1521.36ZM1404.41 1325.31L1403.41 1323.58L1402.41 1324.15V1325.31H1404.41ZM1517.6 1259.96L1518.6 1258.22L1517.6 1257.65L1516.6 1258.22L1517.6 1259.96ZM1630.79 1325.31H1632.79V1324.15L1631.79 1323.58L1630.79 1325.31ZM1630.79 1456.01L1631.79 1457.74L1632.79 1457.17V1456.01H1630.79ZM1385.89 1301.41L1384.89 1303.14L1385.89 1303.72L1386.89 1303.14L1385.89 1301.41ZM1272.7 1236.06H1270.7V1237.21L1271.7 1237.79L1272.7 1236.06ZM1499.09 1236.06L1500.09 1237.79L1501.09 1237.21V1236.06H1499.09ZM1499.09 1105.35H1501.09V1104.2L1500.09 1103.62L1499.09 1105.35ZM1385.89 1040L1386.89 1038.27L1385.89 1037.69L1384.89 1038.27L1385.89 1040ZM1272.7 1105.35L1271.7 1103.62L1270.7 1104.2V1105.35H1272.7ZM1143 1456.01H1141V1457.17L1142 1457.74L1143 1456.01ZM1256.19 1521.36L1255.19 1523.1L1256.19 1523.67L1257.19 1523.1L1256.19 1521.36ZM1143 1325.31L1142 1323.58L1141 1324.15V1325.31H1143ZM1256.19 1259.96L1257.19 1258.22L1256.19 1257.65L1255.19 1258.22L1256.19 1259.96ZM1369.39 1325.31H1371.39V1324.15L1370.39 1323.58L1369.39 1325.31ZM1369.39 1456.01L1370.39 1457.74L1371.39 1457.17V1456.01H1369.39ZM1387.23 1742.66L1386.23 1744.39L1387.23 1744.97L1388.23 1744.39L1387.23 1742.66ZM1274.04 1677.31H1272.04V1678.46L1273.04 1679.04L1274.04 1677.31ZM1500.42 1677.31L1501.42 1679.04L1502.42 1678.46V1677.31H1500.42ZM1500.42 1546.6H1502.42V1545.45L1501.42 1544.87L1500.42 1546.6ZM1387.23 1481.25L1388.23 1479.52L1387.23 1478.94L1386.23 1479.52L1387.23 1481.25ZM1274.04 1546.6L1273.04 1544.87L1272.04 1545.45V1546.6H1274.04ZM1518.27 1962.62L1517.27 1964.35L1518.27 1964.92L1519.27 1964.35L1518.27 1962.62ZM1405.08 1897.26H1403.08V1898.42L1404.08 1899L1405.08 1897.26ZM1631.46 1897.26L1632.46 1899L1633.46 1898.42V1897.26H1631.46ZM1631.46 1766.56H1633.46V1765.4L1632.46 1764.83L1631.46 1766.56ZM1518.27 1701.21L1519.27 1699.48L1518.27 1698.9L1517.27 1699.48L1518.27 1701.21ZM1405.08 1766.56L1404.08 1764.83L1403.08 1765.4V1766.56H1405.08ZM2039.75 1522.7L2038.75 1524.43L2039.75 1525.01L2040.75 1524.43L2039.75 1522.7ZM1926.55 1457.35H1924.55V1458.5L1925.55 1459.08L1926.55 1457.35ZM2152.94 1457.35L2153.94 1459.08L2154.94 1458.5V1457.35H2152.94ZM2152.94 1326.65H2154.94V1325.49L2153.94 1324.91L2152.94 1326.65ZM2039.75 1261.29L2040.75 1259.56L2039.75 1258.98L2038.75 1259.56L2039.75 1261.29ZM1926.55 1326.65L1925.55 1324.91L1924.55 1325.49V1326.65H1926.55ZM1796.85 1677.31H1794.85V1678.46L1795.85 1679.04L1796.85 1677.31ZM1910.05 1742.66L1909.05 1744.39L1910.05 1744.97L1911.05 1744.39L1910.05 1742.66ZM1796.85 1546.6L1795.85 1544.87L1794.85 1545.45V1546.6H1796.85ZM1910.05 1481.25L1911.05 1479.52L1910.05 1478.94L1909.05 1479.52L1910.05 1481.25ZM2023.24 1546.6H2025.24V1545.45L2024.24 1544.87L2023.24 1546.6ZM2023.24 1677.31L2024.24 1679.04L2025.24 1678.46V1677.31H2023.24ZM1780.35 1962.62L1779.35 1964.35L1780.35 1964.92L1781.35 1964.35L1780.35 1962.62ZM1667.15 1897.26H1665.15V1898.42L1666.15 1899L1667.15 1897.26ZM1893.54 1897.26L1894.54 1899L1895.54 1898.42V1897.26H1893.54ZM1893.54 1766.56H1895.54V1765.4L1894.54 1764.83L1893.54 1766.56ZM1780.35 1701.21L1781.35 1699.48L1780.35 1698.9L1779.35 1699.48L1780.35 1701.21ZM1667.15 1766.56L1666.15 1764.83L1665.15 1765.4V1766.56H1667.15ZM2057.59 1677.31H2055.59V1678.46L2056.59 1679.04L2057.59 1677.31ZM2170.79 1742.66L2169.79 1744.39L2170.79 1744.97L2171.79 1744.39L2170.79 1742.66ZM2057.59 1546.6L2056.59 1544.87L2055.59 1545.45V1546.6H2057.59ZM2170.79 1481.25L2171.79 1479.52L2170.79 1478.94L2169.79 1479.52L2170.79 1481.25ZM2283.98 1546.6H2285.98V1545.45L2284.98 1544.87L2283.98 1546.6ZM2283.98 1677.31L2284.98 1679.04L2285.98 1678.46V1677.31H2283.98ZM2041.08 1962.62L2040.08 1964.35L2041.08 1964.92L2042.08 1964.35L2041.08 1962.62ZM1927.89 1897.26H1925.89V1898.42L1926.89 1899L1927.89 1897.26ZM2154.28 1897.26L2155.28 1899L2156.28 1898.42V1897.26H2154.28ZM2154.28 1766.56H2156.28V1765.4L2155.28 1764.83L2154.28 1766.56ZM2041.08 1701.21L2042.08 1699.48L2041.08 1698.9L2040.08 1699.48L2041.08 1701.21ZM1927.89 1766.56L1926.89 1764.83L1925.89 1765.4V1766.56H1927.89ZM1798.19 2117.22H1796.19V2118.37L1797.19 2118.95L1798.19 2117.22ZM1911.38 2182.57L1910.38 2184.3L1911.38 2184.88L1912.38 2184.3L1911.38 2182.57ZM1798.19 1986.52L1797.19 1984.78L1796.19 1985.36V1986.52H1798.19ZM1911.38 1921.16L1912.38 1919.43L1911.38 1918.86L1910.38 1919.43L1911.38 1921.16ZM2024.58 1986.52H2026.58V1985.36L2025.58 1984.78L2024.58 1986.52ZM2024.58 2117.22L2025.58 2118.95L2026.58 2118.37V2117.22H2024.58ZM1778.34 1521.36L1777.34 1523.1L1778.34 1523.67L1779.34 1523.1L1778.34 1521.36ZM1665.15 1456.01H1663.15V1457.17L1664.15 1457.74L1665.15 1456.01ZM1891.53 1456.01L1892.53 1457.74L1893.53 1457.17V1456.01H1891.53ZM1891.53 1325.31H1893.53V1324.15L1892.53 1323.58L1891.53 1325.31ZM1778.34 1259.96L1779.34 1258.22L1778.34 1257.65L1777.34 1258.22L1778.34 1259.96ZM1665.15 1325.31L1664.15 1323.58L1663.15 1324.15V1325.31H1665.15ZM1274.38 2118.95L1387.57 2184.3L1389.57 2180.84L1276.38 2115.49L1274.38 2118.95ZM1273.38 1986.52V2117.22H1277.38V1986.52H1273.38ZM1387.57 1919.43L1274.38 1984.78L1276.38 1988.25L1389.57 1922.9L1387.57 1919.43ZM1502.76 1984.78L1389.57 1919.43L1387.57 1922.9L1500.76 1988.25L1502.76 1984.78ZM1503.76 2117.22V1986.52H1499.76V2117.22H1503.76ZM1389.57 2184.3L1502.76 2118.95L1500.76 2115.49L1387.57 2180.84L1389.57 2184.3ZM1143.34 1899L1256.53 1964.35L1258.53 1960.88L1145.34 1895.53L1143.34 1899ZM1142.34 1766.56V1897.26H1146.34V1766.56H1142.34ZM1256.53 1699.48L1143.34 1764.83L1145.34 1768.29L1258.53 1702.94L1256.53 1699.48ZM1371.72 1764.83L1258.53 1699.48L1256.53 1702.94L1369.72 1768.29L1371.72 1764.83ZM1372.72 1897.26V1766.56H1368.72V1897.26H1372.72ZM1258.53 1964.35L1371.72 1899L1369.72 1895.53L1256.53 1960.88L1258.53 1964.35ZM1648.97 1740.93L1535.78 1675.57L1533.78 1679.04L1646.97 1744.39L1648.97 1740.93ZM1760.16 1675.57L1646.97 1740.93L1648.97 1744.39L1762.16 1679.04L1760.16 1675.57ZM1759.16 1546.6V1677.31H1763.16V1546.6H1759.16ZM1646.97 1482.98L1760.16 1548.33L1762.16 1544.87L1648.97 1479.52L1646.97 1482.98ZM1535.78 1548.33L1648.97 1482.98L1646.97 1479.52L1533.78 1544.87L1535.78 1548.33ZM1536.78 1677.31V1546.6H1532.78V1677.31H1536.78ZM1648.3 1299.68L1535.11 1234.32L1533.11 1237.79L1646.3 1303.14L1648.3 1299.68ZM1759.49 1234.32L1646.3 1299.68L1648.3 1303.14L1761.49 1237.79L1759.49 1234.32ZM1758.49 1105.35V1236.06H1762.49V1105.35H1758.49ZM1646.3 1041.73L1759.49 1107.08L1761.49 1103.62L1648.3 1038.27L1646.3 1041.73ZM1535.11 1107.08L1648.3 1041.73L1646.3 1038.27L1533.11 1103.62L1535.11 1107.08ZM1536.11 1236.06V1105.35H1532.11V1236.06H1536.11ZM1403.41 1457.74L1516.6 1523.1L1518.6 1519.63L1405.41 1454.28L1403.41 1457.74ZM1402.41 1325.31V1456.01H1406.41V1325.31H1402.41ZM1516.6 1258.22L1403.41 1323.58L1405.41 1327.04L1518.6 1261.69L1516.6 1258.22ZM1631.79 1323.58L1518.6 1258.22L1516.6 1261.69L1629.79 1327.04L1631.79 1323.58ZM1632.79 1456.01V1325.31H1628.79V1456.01H1632.79ZM1518.6 1523.1L1631.79 1457.74L1629.79 1454.28L1516.6 1519.63L1518.6 1523.1ZM1386.89 1299.68L1273.7 1234.32L1271.7 1237.79L1384.89 1303.14L1386.89 1299.68ZM1498.09 1234.32L1384.89 1299.68L1386.89 1303.14L1500.09 1237.79L1498.09 1234.32ZM1497.09 1105.35V1236.06H1501.09V1105.35H1497.09ZM1384.89 1041.73L1498.09 1107.08L1500.09 1103.62L1386.89 1038.27L1384.89 1041.73ZM1273.7 1107.08L1386.89 1041.73L1384.89 1038.27L1271.7 1103.62L1273.7 1107.08ZM1274.7 1236.06V1105.35H1270.7V1236.06H1274.7ZM1142 1457.74L1255.19 1523.1L1257.19 1519.63L1144 1454.28L1142 1457.74ZM1141 1325.31V1456.01H1145V1325.31H1141ZM1255.19 1258.22L1142 1323.58L1144 1327.04L1257.19 1261.69L1255.19 1258.22ZM1370.39 1323.58L1257.19 1258.22L1255.19 1261.69L1368.39 1327.04L1370.39 1323.58ZM1371.39 1456.01V1325.31H1367.39V1456.01H1371.39ZM1257.19 1523.1L1370.39 1457.74L1368.39 1454.28L1255.19 1519.63L1257.19 1523.1ZM1388.23 1740.93L1275.04 1675.57L1273.04 1679.04L1386.23 1744.39L1388.23 1740.93ZM1499.42 1675.57L1386.23 1740.93L1388.23 1744.39L1501.42 1679.04L1499.42 1675.57ZM1498.42 1546.6V1677.31H1502.42V1546.6H1498.42ZM1386.23 1482.98L1499.42 1548.33L1501.42 1544.87L1388.23 1479.52L1386.23 1482.98ZM1275.04 1548.33L1388.23 1482.98L1386.23 1479.52L1273.04 1544.87L1275.04 1548.33ZM1276.04 1677.31V1546.6H1272.04V1677.31H1276.04ZM1519.27 1960.88L1406.08 1895.53L1404.08 1899L1517.27 1964.35L1519.27 1960.88ZM1630.46 1895.53L1517.27 1960.88L1519.27 1964.35L1632.46 1899L1630.46 1895.53ZM1629.46 1766.56V1897.26H1633.46V1766.56H1629.46ZM1517.27 1702.94L1630.46 1768.29L1632.46 1764.83L1519.27 1699.48L1517.27 1702.94ZM1406.08 1768.29L1519.27 1702.94L1517.27 1699.48L1404.08 1764.83L1406.08 1768.29ZM1407.08 1897.26V1766.56H1403.08V1897.26H1407.08ZM2040.75 1520.97L1927.55 1455.62L1925.55 1459.08L2038.75 1524.43L2040.75 1520.97ZM2151.94 1455.62L2038.75 1520.97L2040.75 1524.43L2153.94 1459.08L2151.94 1455.62ZM2150.94 1326.65V1457.35H2154.94V1326.65H2150.94ZM2038.75 1263.03L2151.94 1328.38L2153.94 1324.91L2040.75 1259.56L2038.75 1263.03ZM1927.55 1328.38L2040.75 1263.03L2038.75 1259.56L1925.55 1324.91L1927.55 1328.38ZM1928.55 1457.35V1326.65H1924.55V1457.35H1928.55ZM1795.85 1679.04L1909.05 1744.39L1911.05 1740.93L1797.85 1675.57L1795.85 1679.04ZM1794.85 1546.6V1677.31H1798.85V1546.6H1794.85ZM1909.05 1479.52L1795.85 1544.87L1797.85 1548.33L1911.05 1482.98L1909.05 1479.52ZM2024.24 1544.87L1911.05 1479.52L1909.05 1482.98L2022.24 1548.33L2024.24 1544.87ZM2025.24 1677.31V1546.6H2021.24V1677.31H2025.24ZM1911.05 1744.39L2024.24 1679.04L2022.24 1675.57L1909.05 1740.93L1911.05 1744.39ZM1781.35 1960.88L1668.15 1895.53L1666.15 1899L1779.35 1964.35L1781.35 1960.88ZM1892.54 1895.53L1779.35 1960.88L1781.35 1964.35L1894.54 1899L1892.54 1895.53ZM1891.54 1766.56V1897.26H1895.54V1766.56H1891.54ZM1779.35 1702.94L1892.54 1768.29L1894.54 1764.83L1781.35 1699.48L1779.35 1702.94ZM1668.15 1768.29L1781.35 1702.94L1779.35 1699.48L1666.15 1764.83L1668.15 1768.29ZM1669.15 1897.26V1766.56H1665.15V1897.26H1669.15ZM2056.59 1679.04L2169.79 1744.39L2171.79 1740.93L2058.59 1675.57L2056.59 1679.04ZM2055.59 1546.6V1677.31H2059.59V1546.6H2055.59ZM2169.79 1479.52L2056.59 1544.87L2058.59 1548.33L2171.79 1482.98L2169.79 1479.52ZM2284.98 1544.87L2171.79 1479.52L2169.79 1482.98L2282.98 1548.33L2284.98 1544.87ZM2285.98 1677.31V1546.6H2281.98V1677.31H2285.98ZM2171.79 1744.39L2284.98 1679.04L2282.98 1675.57L2169.79 1740.93L2171.79 1744.39ZM2042.08 1960.88L1928.89 1895.53L1926.89 1899L2040.08 1964.35L2042.08 1960.88ZM2153.28 1895.53L2040.08 1960.88L2042.08 1964.35L2155.28 1899L2153.28 1895.53ZM2152.28 1766.56V1897.26H2156.28V1766.56H2152.28ZM2040.08 1702.94L2153.28 1768.29L2155.28 1764.83L2042.08 1699.48L2040.08 1702.94ZM1928.89 1768.29L2042.08 1702.94L2040.08 1699.48L1926.89 1764.83L1928.89 1768.29ZM1929.89 1897.26V1766.56H1925.89V1897.26H1929.89ZM1797.19 2118.95L1910.38 2184.3L1912.38 2180.84L1799.19 2115.49L1797.19 2118.95ZM1796.19 1986.52V2117.22H1800.19V1986.52H1796.19ZM1910.38 1919.43L1797.19 1984.78L1799.19 1988.25L1912.38 1922.9L1910.38 1919.43ZM2025.58 1984.78L1912.38 1919.43L1910.38 1922.9L2023.58 1988.25L2025.58 1984.78ZM2026.58 2117.22V1986.52H2022.58V2117.22H2026.58ZM1912.38 2184.3L2025.58 2118.95L2023.58 2115.49L1910.38 2180.84L1912.38 2184.3ZM1779.34 1519.63L1666.15 1454.28L1664.15 1457.74L1777.34 1523.1L1779.34 1519.63ZM1890.53 1454.28L1777.34 1519.63L1779.34 1523.1L1892.53 1457.74L1890.53 1454.28ZM1889.53 1325.31V1456.01H1893.53V1325.31H1889.53ZM1777.34 1261.69L1890.53 1327.04L1892.53 1323.58L1779.34 1258.22L1777.34 1261.69ZM1666.15 1327.04L1779.34 1261.69L1777.34 1258.22L1664.15 1323.58L1666.15 1327.04ZM1667.15 1456.01V1325.31H1663.15V1456.01H1667.15Z" fill="url(#paint2_linear)" mask="url(#path-7-inside-3)" />
                <path id="animateThisSVGPath" fill-rule="evenodd" clip-rule="evenodd" d="M541.728 627.237L815.687 101.796L818.894 104.024L544.94 629.464L541.728 627.237ZM827.377 143.346L553.419 668.783L556.63 671.011L830.585 145.574L827.377 143.346ZM799.364 797.681L1069.05 269.283L1072.28 271.476L802.59 799.875L799.364 797.681ZM759.351 1414.42C757.95 1414.16 756.514 1414.02 755.05 1414.01C740.177 1413.97 728.105 1427.76 728.07 1444.83C728.043 1461.91 740.069 1475.79 754.938 1475.84C769.811 1475.89 781.887 1462.1 781.922 1445.02C781.936 1436.02 778.605 1427.92 773.275 1422.25L967.908 1010.78L904.307 822.101L1177.33 284.662L1163.96 275.689L887.176 820.521L950.881 1009.51L759.351 1414.42ZM763.068 1454.25C765.155 1451.85 766.427 1448.63 766.437 1444.97C766.44 1441.31 765.18 1438.08 763.102 1435.67C761.012 1433.27 758.204 1431.81 755.018 1431.79C751.836 1431.79 749.023 1433.23 746.924 1435.61C744.837 1438.01 743.565 1441.23 743.555 1444.89C743.552 1448.55 744.812 1451.78 746.887 1454.19C748.98 1456.59 751.788 1458.05 754.97 1458.07C758.156 1458.07 760.97 1456.63 763.068 1454.25ZM82.3812 1014.94L-112.258 1426.4L-48.6568 1615.09L-321.684 2152.52L-308.305 2161.49L-31.5257 1616.67L-95.2304 1427.68L96.3054 1022.77C97.7036 1023.03 99.1382 1023.17 100.6 1023.17C115.473 1023.22 127.542 1009.43 127.58 992.35C127.603 975.272 115.585 961.401 100.712 961.34C85.8386 961.297 73.7664 975.083 73.7318 992.161C73.7176 1001.16 77.0494 1009.27 82.3812 1014.94ZM92.5818 982.941C90.4948 985.339 89.227 988.561 89.2166 992.215C89.2138 995.874 90.47 999.105 92.5484 1001.52C94.6384 1003.92 97.4502 1005.38 100.632 1005.39C103.814 1005.4 106.627 1003.96 108.726 1001.57C110.813 999.176 112.085 995.954 112.095 992.295C112.098 988.642 110.838 985.41 108.76 982.998C106.67 980.599 103.862 979.136 100.68 979.12C97.4976 979.114 94.6805 980.557 92.5818 982.941ZM598.776 865.795L284.383 861.726L124.9 1171.59L280.887 1485.53L596.365 1489.61L755.852 1179.75L599.857 865.809L598.776 865.795ZM751.518 1179.7L597.669 870.064L286.527 866.037L129.23 1171.64L283.08 1481.27L594.22 1485.3L751.518 1179.7ZM298.257 889.642L581.342 893.306L585.676 893.362L727.793 1179.39L582.492 1461.69L295.072 1457.97L152.955 1171.95L298.257 889.642ZM576.914 910.384L306.824 906.889L170.282 1172.17L303.832 1440.95L573.924 1444.45L710.462 1179.16L576.914 910.384ZM142.502 1359.28C141.561 1359.27 140.656 1359.09 139.806 1358.77L82.5166 1463.67L118.431 1540.39L115.156 1542.43L78.1991 1463.48L136.569 1356.61C134.747 1354.72 133.61 1351.98 133.627 1348.95C133.658 1343.31 137.681 1338.79 142.616 1338.85C147.547 1338.92 151.523 1343.54 151.492 1349.19C151.46 1354.83 147.433 1359.35 142.502 1359.28ZM146.949 1299.42C147.75 1299.71 148.599 1299.86 149.479 1299.87C154.41 1299.94 158.437 1295.42 158.468 1289.77C158.5 1284.13 154.524 1279.51 149.593 1279.44C144.662 1279.38 140.635 1283.9 140.603 1289.54C140.586 1292.64 141.777 1295.43 143.67 1297.33L44.1404 1479.11L77.9835 1550.55L81.2532 1548.5L48.4691 1479.29L146.949 1299.42ZM205.513 1443.01C205.482 1448.65 201.459 1453.18 196.524 1453.11C195.846 1453.1 195.186 1453.01 194.553 1452.84L21.7916 1791.32C23.9383 1793.21 25.3162 1796.18 25.2976 1799.52C25.2661 1805.16 21.2394 1809.68 16.3081 1809.62C11.3732 1809.55 7.40121 1804.93 7.43271 1799.28C7.46423 1793.64 11.4873 1789.12 16.4223 1789.19C17.0997 1789.19 17.7592 1789.29 18.3927 1789.46L191.155 1450.98C189.01 1449.08 187.634 1446.11 187.652 1442.78C187.684 1437.14 191.707 1432.61 196.638 1432.67C201.573 1432.74 205.545 1437.37 205.513 1443.01ZM-19.3305 1943.4C-19.362 1949.04 -23.3851 1953.56 -28.3201 1953.5C-33.2513 1953.44 -37.227 1948.81 -37.1955 1943.17C-37.164 1937.53 -33.1372 1933.01 -28.206 1933.07C-27.6628 1933.08 -27.1313 1933.14 -26.6156 1933.25L239.801 1411.26L243.027 1413.46L-23.1351 1934.95C-20.8178 1936.82 -19.3111 1939.92 -19.3305 1943.4ZM118.834 1545.28L-150.852 2073.68L-154.078 2071.48L115.609 1543.08L118.834 1545.28ZM-188.126 2082.21L81.5644 1553.81L78.3385 1551.62L-191.352 2080.01L-188.126 2082.21ZM457.814 1569.63C459.915 1570.22 462.203 1569.94 464.239 1568.66C468.552 1565.93 470.102 1559.72 467.7 1554.78C465.301 1549.84 459.862 1548.03 455.549 1550.75C451.24 1553.48 449.69 1559.69 452.092 1564.64C452.698 1565.88 453.497 1566.93 454.422 1567.76L401.706 1675.7L325.892 1675.64L325.909 1679.92L403.919 1679.98L457.814 1569.63ZM505.988 1532.7C503.995 1533.96 501.76 1534.25 499.696 1533.71L408.303 1721.57L337.588 1721.18L337.586 1716.89L406.096 1717.26L496.281 1531.89C495.309 1531.05 494.47 1529.97 493.841 1528.67C491.442 1523.73 492.988 1517.51 497.301 1514.8C501.611 1512.07 507.05 1513.88 509.452 1518.82C511.851 1523.76 510.301 1529.98 505.988 1532.7ZM354.445 1556.19C352.05 1551.24 353.596 1545.03 357.909 1542.31C362.218 1539.59 367.657 1541.39 370.059 1546.34C372.454 1551.28 370.908 1557.49 366.595 1560.21C364.559 1561.5 362.27 1561.77 360.168 1561.19L184.656 1897.8C185.581 1898.62 186.38 1899.67 186.985 1900.91C189.384 1905.86 187.834 1912.07 183.525 1914.79C179.212 1917.52 173.772 1915.71 171.377 1910.77C168.975 1905.83 170.525 1899.61 174.834 1896.89C176.872 1895.61 179.161 1895.33 181.261 1895.92L356.777 1559.31C355.851 1558.49 355.051 1557.44 354.445 1556.19ZM367.138 1493.87L93.1831 2019.31L89.972 2017.08L363.931 1491.64L367.138 1493.87ZM327.505 1682.71L53.5504 2208.15L50.3429 2205.92L324.298 1680.48L327.505 1682.71ZM65.2372 2249.69L339.192 1724.25L335.985 1722.03L62.0297 2247.47L65.2372 2249.69ZM741.118 992.716C740.269 992.397 739.363 992.219 738.422 992.207C733.491 992.143 729.464 996.664 729.433 1002.31C729.401 1007.95 733.377 1012.58 738.308 1012.64C743.243 1012.7 747.27 1008.18 747.302 1002.54C747.319 999.508 746.179 996.77 744.356 994.876L802.725 888.009L765.768 809.058L762.493 811.098L798.412 887.824L741.118 992.716ZM731.45 1051.62C732.329 1051.63 733.178 1051.78 733.98 1052.07L832.459 872.205L799.671 802.991L802.944 800.935L836.784 872.377L737.257 1054.16C739.151 1056.06 740.342 1058.85 740.325 1061.95C740.293 1067.59 736.267 1072.11 731.335 1072.05C726.4 1071.98 722.428 1067.36 722.46 1061.72C722.491 1056.07 726.515 1051.55 731.45 1051.62ZM684.397 898.378C679.465 898.314 675.439 902.839 675.407 908.479C675.376 914.123 679.351 918.751 684.283 918.815C689.221 918.879 693.244 914.354 693.276 908.71C693.294 905.379 691.917 902.401 689.768 900.508L862.529 562.033C863.163 562.205 863.824 562.3 864.502 562.309C869.437 562.373 873.464 557.849 873.495 552.204C873.527 546.564 869.551 541.936 864.616 541.872C859.685 541.808 855.658 546.333 855.627 551.973C855.608 555.304 856.985 558.282 859.131 560.176L686.369 898.654C685.735 898.482 685.075 898.387 684.397 898.378ZM909.245 397.985C904.313 397.921 900.287 402.446 900.255 408.086C900.236 411.569 901.742 414.664 904.058 416.538L637.901 938.034L641.127 940.228L907.538 418.235C908.054 418.348 908.587 418.41 909.13 418.417C914.066 418.481 918.088 413.961 918.12 408.317C918.151 402.677 914.18 398.049 909.245 397.985ZM1031.78 277.813L762.09 806.212L765.316 808.406L1035 280.007L1031.78 277.813ZM416.685 782.831C418.721 781.547 421.009 781.271 423.11 781.86L477.005 671.505L555.019 671.573L555.032 675.853L479.218 675.784L426.499 783.734C427.427 784.559 428.228 785.608 428.835 786.858C431.234 791.8 429.684 798.012 425.375 800.731C421.066 803.455 415.627 801.652 413.224 796.709C410.826 791.763 412.372 785.551 416.685 782.831ZM381.232 817.784C379.166 817.242 376.929 817.533 374.933 818.794C370.627 821.513 369.077 827.725 371.476 832.667C373.875 837.614 379.318 839.417 383.627 836.694C387.936 833.974 389.486 827.762 387.083 822.82C386.454 821.523 385.616 820.442 384.644 819.602L474.828 634.232L543.335 634.6L543.336 630.309L472.622 629.929L381.232 817.784ZM182.324 999.108C186.637 996.389 188.183 990.172 185.781 985.23C183.386 980.288 177.947 978.484 173.634 981.204C169.324 983.923 167.775 990.139 170.173 995.082C172.572 1000.03 178.015 1001.83 182.324 999.108ZM526.48 795.304C528.879 800.246 527.333 806.458 523.02 809.181C518.711 811.901 513.272 810.097 510.869 805.155C508.47 800.209 510.02 793.997 514.329 791.277C516.367 789.991 518.658 789.717 520.76 790.307L696.271 453.693C695.345 452.867 694.546 451.82 693.94 450.572C691.541 445.629 693.091 439.417 697.4 436.698C701.709 433.974 707.148 435.778 709.551 440.724C711.949 445.666 710.4 451.879 706.094 454.598C704.055 455.883 701.764 456.159 699.662 455.57L524.15 792.186C525.075 793.011 525.874 794.057 526.48 795.304ZM797.144 325.808C799.546 330.75 797.996 336.963 793.687 339.686C791.774 340.892 789.639 341.209 787.646 340.756L516.998 859.851L513.79 857.623L784.172 339.04C783.116 338.179 782.207 337.042 781.536 335.66C779.133 330.713 780.683 324.501 784.996 321.782C789.302 319.063 794.748 320.862 797.144 325.808Z" fill="url(#paint3_linear)"/>
                </g>
                </g>
                <defs>
                <linearGradient id="paint0_linear" x1="-106" y1="572" x2="793" y2="1164.5" gradientUnits="userSpaceOnUse">
                <stop stop-color="#003F9D" stop-opacity="0.66"/>
                <stop offset="1" stop-color="#0365F9" stop-opacity="0.17"/>
                </linearGradient>
                <linearGradient id="paint1_linear" x1="2058.49" y1="569.572" x2="1159.49" y2="-22.928" gradientUnits="userSpaceOnUse">
                <stop stop-color="#003F9D" stop-opacity="0.66"/>
                <stop offset="1" stop-color="#0365F9" stop-opacity="0.17"/>
                </linearGradient>
                <linearGradient id="paint2_linear" x1="2104.49" y1="1943.57" x2="1205.49" y2="1351.07" gradientUnits="userSpaceOnUse">
                <stop stop-color="#003F9D" stop-opacity="0.66"/>
                <stop offset="1" stop-color="#0365F9" stop-opacity="0.17"/>
                </linearGradient>
                <linearGradient id="paint3_linear" x1="450.408" y1="532.992" x2="242.605" y2="2027.58" gradientUnits="userSpaceOnUse">
                <stop stop-color="#3864FF"/>
                <stop offset="1" stop-color="#4994CA"/>
                </linearGradient>
                </defs>
            </svg>